<svg xmlns="http://www.w3.org/2000/svg" viewBox="0 0 852.72 379.00" width="853" height="379" role="img" aria-label="Shaklek, one colour">
  <title>Shaklek, one colour</title>
  <desc>Shaklek. Latin in Italiana, Arabic in Reem Kufi, converted to outlines. No fonts required.</desc>
  <g fill="#1A1A1A" transform="translate(36.00 184.00)"><path transform="translate(0.000 0.000) scale(0.200000 -0.200000)" d="M439 658Q348 693 267.5 693Q187 693 142 659Q97 625 97 565Q97 492 173 452Q207 435 247.5 420.5Q288 406 329 388Q370 370 404 347Q438 324 459 283.5Q480 243 480 180.5Q480 118 445 74Q410 30 360.5 14.5Q311 -1 245 -1Q122 -1 35 60L40 68Q73 42 125.5 25.5Q178 9 233 9Q314 9 371.5 46.5Q429 84 429 157Q429 237 353 282Q319 302 278.5 319Q238 336 197 354.5Q156 373 122 396Q46 446 46 538Q46 611 95 656.5Q144 702 242.5 702Q341 702 443 668Z"/><path transform="translate(130.586 0.000) scale(0.200000 -0.200000)" d="M460 0Q419 0 397.5 18Q376 36 375 54L374 71L374 385Q374 464 332 486Q312 496 281 496Q219 496 169.5 445.5Q120 395 120 355L120 0L50 0L50 749L120 749L120 386Q136 429 181 466.5Q226 504 282 504Q379 504 411.5 470.5Q444 437 444 384L444 71Q444 42 455.5 26.5Q467 11 478 10L490 8L521 8L521 0Z"/><path transform="translate(265.372 0.000) scale(0.200000 -0.200000)" d="M453 0Q385 0 360 26Q337 48 337 64L337 85Q288 -4 180 -4Q54 -4 37 110Q35 122 35 134.5Q35 147 39 162Q43 177 62 195Q100 231 229 239Q261 242 288 242Q315 242 337 240L337 406Q335 407 337 415.5Q339 424 333.5 437.5Q328 451 319 464Q310 477 287 486.5Q264 496 227 496Q190 496 140.5 482.5Q91 469 68 456L64 463Q153 504 245 504Q348 504 381 467Q407 438 407 406L407 71Q407 42 418.5 26.5Q430 11 442 10L453 8L484 8L484 0ZM196 4Q249 4 291.5 40.5Q334 77 337 111L337 232Q310 234 282.5 234Q255 234 228 231Q152 222 129 197Q106 172 106 128Q106 120 107 110Q116 4 196 4Z"/><path transform="translate(392.759 0.000) scale(0.200000 -0.200000)" d="M120 750L120 252L340 500L350 500L187 316L402 0L332 0L147 272L120 241L120 0L50 0L50 750Z"/><path transform="translate(507.745 0.000) scale(0.200000 -0.200000)" d="M167 0Q79 0 56 46Q51 56 51 64L51 749L121 749L121 71Q121 42 132.5 26.5Q144 11 156 10L167 8L198 8L198 0Z"/><path transform="translate(571.931 0.000) scale(0.200000 -0.200000)" d="M108 244Q108 120 151.5 62Q195 4 266 4Q366 4 444 34L447 27Q367 -4 266.5 -4Q166 -4 103 56Q40 116 40 241Q40 366 106 435Q172 504 274 504Q356 504 412 455Q468 406 468 310Q468 305 468 300L111 300Q108 273 108 244ZM400 308Q399 404 363 450Q327 496 270 496Q213 496 168.5 446Q124 396 112 308L400 308Z"/><path transform="translate(693.317 0.000) scale(0.200000 -0.200000)" d="M120 750L120 252L340 500L350 500L187 316L402 0L332 0L147 272L120 241L120 0L50 0L50 750Z"/></g>
  <rect x="301.44" y="244.00" width="249.83" height="1.80" fill="#1A1A1A"/>
  <g fill="#1A1A1A" transform="translate(300.57 317.80)"><path transform="translate(0.000 0.000) scale(0.084000 -0.084000)" d="M909 0L909 100L1105 100L1105 0ZM25 0L85 100L885 100Q886 142 868.5 171Q851 200 795 200L165 200L265 300L795 300Q857 300 894.5 283Q932 266 951.5 237Q971 208 978 172Q985 136 985 97.5Q985 59 985 23Q985 11 975 6Q965 1 955 0.5Q945 0 945 0ZM320 222L254 289L586 616L586 451Q580 462 572.5 461.5Q565 461 560 456Z"/><path transform="translate(91.140 0.000) scale(0.084000 -0.084000)" d="M100 0L100 100L320 100L320 0ZM-20 0L-20 100L100 100L100 778L200 800L200 23Q200 11 190 6Q180 1 170 0.5Q160 0 160 0Z"/><path transform="translate(116.340 0.000) scale(0.084000 -0.084000)" d="M809 0L809 100L1005 100L1005 0ZM-60 0L0 100L800 100Q801 142 783.5 171Q766 200 710 200L80 200L180 300L710 300Q772 300 809.5 283Q847 266 866.5 237Q886 208 893 172Q900 136 900 97.5Q900 59 900 23Q900 11 890 6Q880 1 870 0.5Q860 0 860 0ZM235 222L169 289L501 616L501 451Q495 462 487.5 461.5Q480 461 475 456Z"/><path transform="translate(215.880 -46.200) scale(0.084000 -0.084000)" d="M145 92Q121 92 104 109Q87 126 87 150Q87 174 104 191Q121 208 145 208Q169 208 186 191Q203 174 203 150Q203 126 186 109Q169 92 145 92ZM231 -58Q207 -58 190 -41Q173 -24 173 0Q173 24 190 41Q207 58 231 58Q255 58 272 41Q289 24 289 0Q289 -24 272 -41Q255 -58 231 -58ZM58 -58Q34 -58 17 -41Q0 -24 0 0Q0 24 17 41Q34 58 58 58Q82 58 99 41Q116 24 116 0Q116 -24 99 -41Q82 -58 58 -58Z"/><path transform="translate(199.080 0.000) scale(0.084000 -0.084000)" d="M-20 0L-20 100L100 100L100 278L200 300L200 100L300 100L300 278L400 300L400 100L500 100L500 278L600 300L600 23Q600 11 590 6Q580 1 570 0.5Q560 0 560 0Z"/></g>
</svg>
